PathFileType	4	(X/Y/Z)	35_2_77_p0_0-660_filt_butterworth.trc
DataRate	CameraRate	NumFrames	NumMarkers	Units	OrigDataRate	OrigDataStartFrame	OrigNumFrames
53.0	53.0	4	27	m	53.0	0	660
Frame#	Time	RHip			RKnee			RAnkle			RBigToe			RSmallToe			RHeel			LHip			LKnee			LAnkle			LBigToe			LSmallToe			LHeel			Neck			Head			Nose			RShoulder			RElbow			RWrist			RThumb			RIndex			RPinky			LShoulder			LElbow			LWrist			LThumb			LIndex			LPinky			
		X1	Y1	Z1	X2	Y2	Z2	X3	Y3	Z3	X4	Y4	Z4	X5	Y5	Z5	X6	Y6	Z6	X7	Y7	Z7	X8	Y8	Z8	X9	Y9	Z9	X10	Y10	Z10	X11	Y11	Z11	X12	Y12	Z12	X13	Y13	Z13	X14	Y14	Z14	X15	Y15	Z15	X16	Y16	Z16	X17	Y17	Z17	X18	Y18	Z18	X19	Y19	Z19	X20	Y20	Z20	X21	Y21	Z21	X22	Y22	Z22	X23	Y23	Z23	X24	Y24	Z24	X25	Y25	Z25	X26	Y26	Z26	X27	Y27	Z27	
0	0.0	0.38734945959846595	0.73342516071732	0.4506431593538991	0.37834109344952327	0.9312007084735783	0.800690188643685	0.35096630542422735	1.1407988755657081	1.187624304285326	0.349916891605611	0.97766373721075	1.2897049041276993	0.4149934552915282	0.9607478922762597	1.280577536689183	0.33405779451988593	1.2116102467138277	1.209458830214968	0.14842474972336622	0.7364647961122278	0.4432719969888546	0.1605929477106931	0.9325455810390351	0.8065710098661438	0.17516598371406322	1.1486324580367997	1.1842976653947561	0.19712063320706083	0.9409388396305676	1.284842067064783	0.13909516039878342	1.000163746729422	1.2805991146248648	0.19076568147924558	1.1960430740320274	1.2278761694216653	0.2650733146538297	0.3615387105359413	-0.008300755028006864	0.2367401637341795	0.16500068091591102	-0.1903282784411066	0.2371123321296633	0.17218797399282404	-0.0406289775172263	0.4293750179421421	0.4180336901980949	0.049319964405561655	0.46368131584830335	0.5671365395462954	0.32450176167310013	0.3258283991932187	0.6231625279645965	0.5271595263273235	0.22932466335825397	0.6634381638855159	0.6109314528150408	0.22778672755413956	0.673929903706633	0.6248322245486562	0.26481286269600807	0.6305244416327392	0.6343609312989754	0.10589140470940107	0.41976004632336905	0.04726673890283689	0.07499977797208915	0.5707779015200949	0.3252920102928952	0.21561633663924462	0.6372057857136033	0.5286103328275032	0.305923956298265	0.6480679431813894	0.5896253199250372	0.3011477417894405	0.6474835842375537	0.6226361848540201	0.2402031317041926	0.6768435240392985	0.6284038881870875
1	0.0188679245283018	0.38771827495780364	0.7372109698670857	0.4561765976107087	0.37897355485112466	0.9272707422652791	0.8109916447830074	0.35631220371451144	1.1389050032888766	1.187466506404223	0.35085740100220164	0.9604131298756038	1.288313785176396	0.41571650710635055	0.9642592988300663	1.2814030976903992	0.3355586161389715	1.2162547271047794	1.2098592169698192	0.1518564311393787	0.730254512211025	0.44968484877618287	0.16062261383042853	0.9325399790651588	0.8067900974374043	0.17460161102655114	1.1456484699927216	1.1811877917070948	0.19618100469272817	0.949567752430232	1.2853368675454924	0.13937961740560273	0.9992645604012619	1.280176721127054	0.1904920280403339	1.1931952490235744	1.2250851164992345	0.2648541106376422	0.3610872822542629	-0.009133812656186626	0.23684298240403892	0.1669880995987073	-0.18656709618818748	0.23702182945214675	0.1727605816319055	-0.038910270721444894	0.42941180134442714	0.41803440284882887	0.049268354392859474	0.46359088867223586	0.5668858437652936	0.3245443886382053	0.3260625073216217	0.6240497487166001	0.5283010987813279	0.2292181007217617	0.6642469585614981	0.6135313691684234	0.22802529121453735	0.6735916596584117	0.6251422397871587	0.2622933460096025	0.6221312551494822	0.635763690054971	0.10581735261104055	0.42013217680660075	0.048223456927720565	0.07505163160674422	0.5700449629912376	0.3257182271273735	0.2146552115688569	0.6334174738292163	0.5309886755416359	0.30571028633406006	0.6494437791843618	0.594868203206171	0.2977485316291436	0.6440852391877909	0.6285143063873803	0.24001990162215625	0.6766024262638881	0.6286585952518076
2	0.0377358490566037	0.38789372008786394	0.7387909422174593	0.45738261649784645	0.37792441013025435	0.929446923593954	0.8170663172361324	0.3582149970583728	1.1360836626613715	1.1872096628509492	0.3512868684251068	0.9558300569202711	1.2880289921592942	0.41585329043893954	0.9655531168831745	1.282008902522609	0.33556427129111155	1.2159722315820312	1.2098957218766382	0.15371394523861198	0.7269254198832644	0.45277162494844964	0.16063000611038497	0.9325598696975759	0.8069500609056011	0.1742852931294914	1.1440345344968086	1.1794698347052273	0.19569963524518766	0.9546662244909478	1.285571546637419	0.13908225430622276	1.0004918879021907	1.2800809895468324	0.19039771976146713	1.1916630732553608	1.223576919071234	0.26475122276189156	0.3612426524449762	-0.009108491934918939	0.2369038052541862	0.16806484836207788	-0.18452987542794785	0.23696979993302042	0.17306549873726737	-0.03798160812904823	0.4294502138570445	0.41797324602995334	0.04926194649829945	0.46352180635855794	0.5667471673901014	0.324610000018133	0.32618126525744034	0.6251853312302456	0.5298503416296043	0.2288291836976954	0.6659438208362395	0.6141148882494212	0.2277478099854729	0.6746416537198371	0.6248391560469447	0.2608348883935776	0.6175091907572158	0.636662287827392	0.10585087663501719	0.42013642137753276	0.048197952463688964	0.07522049050336048	0.5703295459438547	0.32719739864415975	0.21341475591576398	0.6296286487546776	0.5331832621761122	0.30562382016578676	0.650229943699904	0.597694350826124	0.2945478200948296	0.6397278572933445	0.6320253729604529	0.2398644029412756	0.6763456357882651	0.6288244221116127
3	0.0566037735849056	0.38788049814410885	0.7379300865835924	0.45457739614852566	0.37592983105292194	0.9363526541594115	0.8185586383900336	0.35695239060322403	1.1308434318243163	1.1868945282890337	0.35090281885613667	0.9628799150347666	1.2887230364410214	0.41560982685222686	0.9650808442516831	1.282342376703331	0.33468885052399633	1.2128889572480401	1.2096810875258137	0.15403300076246523	0.726173087421133	0.4521443562536874	0.16061640215668427	0.9325980913114282	0.8070284930589244	0.17420571138836166	1.1437459194426658	1.1791176283419027	0.19556168892721065	0.9560602118986326	1.285572081459437	0.13779595406526807	1.0052608846470403	1.2804814190557254	0.19077561246942792	1.1927815233490144	1.2233286174072153	0.2647489912659766	0.36154352254562294	-0.008522100065897379	0.23691492074242337	0.16823645347895053	-0.18417744580050505	0.23694768830007706	0.17310951369644903	-0.037814860904533246	0.4294762460083329	0.4178700262682686	0.04930430394934881	0.46348999391902124	0.566740278624244	0.3247100048726086	0.32614216542797875	0.626312783689075	0.5316210740035042	0.22785026481071757	0.6694044527161049	0.6116680960799861	0.22648252894900867	0.6781743863982566	0.6236719288062075	0.26047860554256197	0.6166349629598008	0.6370695457387081	0.10600469904406473	0.4199565378423087	0.047592003469432646	0.0753904057650716	0.5712229648984093	0.32877978512370526	0.21236039831816433	0.6276262374333919	0.534946308881397	0.3056359821798643	0.6504317555834686	0.5981388670981341	0.2925502785196366	0.6361938724180672	0.6329765201295227	0.23971292799457122	0.676185466918368	0.6288819386365204
